<?xml version="1.0" standalone="no"?>
<!DOCTYPE svg PUBLIC "-//W3C//DTD SVG 20010904//EN"
 "http://www.w3.org/TR/2001/REC-SVG-20010904/DTD/svg10.dtd">
<svg version="1.0" xmlns="http://www.w3.org/2000/svg"
 width="600.000000pt" height="600.000000pt" viewBox="0 0 600.000000 600.000000"
 preserveAspectRatio="xMidYMid meet">

<g transform="translate(0.000000,600.000000) scale(0.100000,-0.100000)"
fill="#000000" stroke="none">
<path d="M2103 4645 c-167 -169 -309 -334 -296 -345 4 -4 64 -54 133 -111 171
-142 278 -240 607 -556 368 -354 420 -392 534 -393 91 0 180 54 336 204 l73
69 -388 391 c-213 215 -468 479 -567 586 -99 107 -203 219 -232 249 l-51 55
-149 -149z"/>
<path d="M3773 4673 c-33 -38 -171 -182 -307 -322 l-247 -255 58 -59 c171
-175 302 -267 382 -267 59 0 145 50 266 156 61 53 166 141 235 196 69 55 129
104 134 109 9 8 -18 46 -117 164 -62 74 -327 345 -337 345 -3 0 -33 -30 -67
-67z"/>
<path d="M1638 4082 c-157 -237 -143 -446 51 -757 148 -238 476 -588 747 -801
45 -35 86 -64 90 -64 5 1 34 33 64 73 30 40 118 145 195 235 77 90 141 168
143 172 5 12 -621 638 -778 780 -96 86 -388 327 -476 392 -7 5 -20 -6 -36 -30z"/>
<path d="M4270 3927 c-529 -424 -1103 -1005 -1497 -1515 l-63 -80 63 -35 c76
-43 125 -57 197 -57 152 0 336 84 601 272 350 248 694 639 864 981 69 142 89
216 83 323 -4 82 -29 149 -76 212 l-18 23 -154 -124z"/>
<path d="M1950 1450 l0 -620 80 0 80 0 0 620 0 620 -80 0 -80 0 0 -620z"/>
<path d="M3879 1828 c0 -227 -1 -241 -16 -220 -47 67 -162 112 -284 112 -95 0
-168 -25 -237 -80 -140 -110 -199 -288 -158 -480 31 -147 104 -242 234 -303
64 -30 73 -32 187 -32 107 0 127 3 182 26 103 43 178 123 226 240 21 53 22 65
25 517 l3 462 -81 0 -80 0 -1 -242z m-172 -270 c69 -17 136 -86 158 -162 21
-73 17 -220 -9 -281 -38 -89 -132 -145 -245 -145 -168 0 -259 86 -277 265 -16
152 50 280 165 321 45 16 148 18 208 2z"/>
<path d="M1395 1706 c-190 -60 -295 -216 -295 -436 0 -250 135 -414 371 -451
95 -15 292 5 327 33 8 7 12 38 12 90 0 73 -2 79 -17 73 -59 -26 -130 -37 -228
-39 -102 -1 -114 1 -168 28 -105 51 -144 137 -135 299 6 109 34 168 100 213
86 58 213 67 377 24 l71 -18 0 79 c0 64 -3 80 -17 87 -59 31 -321 42 -398 18z"/>
<path d="M2500 1702 c-123 -41 -192 -103 -247 -219 -33 -69 -37 -85 -41 -183
-5 -118 9 -187 56 -273 34 -64 119 -142 189 -175 52 -24 70 -27 168 -27 101 0
115 2 170 29 32 16 78 49 101 73 l42 43 22 -65 c12 -36 30 -70 40 -75 10 -6
47 -10 81 -10 59 0 61 1 56 22 -3 13 -15 59 -27 103 -13 52 -24 139 -30 251
-10 189 -27 262 -80 344 -42 66 -90 106 -169 143 -57 27 -78 31 -170 34 -83 2
-118 -1 -161 -15z m288 -161 c150 -77 175 -411 39 -516 -80 -60 -225 -74 -315
-29 -106 52 -147 141 -140 298 4 74 9 101 31 143 30 59 79 102 134 120 60 20
199 11 251 -16z"/>
<path d="M4437 1710 c-115 -29 -209 -110 -265 -228 -34 -71 -37 -85 -41 -186
-4 -132 14 -210 68 -294 59 -90 136 -144 246 -172 89 -22 320 -10 400 20 23 9
25 14 25 74 0 36 -3 67 -7 69 -5 2 -60 -2 -123 -10 -147 -18 -250 -12 -313 17
-57 27 -109 85 -125 139 -21 69 -20 70 61 42 107 -36 253 -41 347 -11 162 52
240 190 196 344 -21 71 -76 130 -160 171 -51 25 -72 29 -165 31 -58 2 -123 -1
-144 -6z m249 -165 c67 -28 93 -115 52 -175 -34 -51 -100 -72 -203 -65 -83 5
-209 35 -228 54 -27 27 42 145 105 177 67 35 201 40 274 9z"/>
</g>
</svg>
