<?xml version="1.0" encoding="utf-8"?>

<!-- Uploaded to: SVG Repo, www.svgrepo.com, Generator: SVG Repo Mixer Tools -->
<svg version="1.1" id="Icons" xmlns="http://www.w3.org/2000/svg" xmlns:xlink="http://www.w3.org/1999/xlink" 
	 viewBox="0 0 32 32" xml:space="preserve">
<style type="text/css">
	.st0{fill:none;stroke:#000000;stroke-width:2;stroke-linecap:round;stroke-linejoin:round;stroke-miterlimit:10;}
</style>
<ellipse class="st0" cx="14" cy="8" rx="10" ry="5"/>
<g>
	<ellipse cx="14" cy="8" rx="11" ry="6"/>
	<path d="M14,24c-4.8,0-8.8-1.4-11-3.6V24c0,3.4,4.8,6,11,6c0.9,0,1.8-0.1,2.7-0.2C15.2,28.3,14.3,26.2,14,24C14,24,14,24,14,24z"/>
	<path d="M3,12.4V16c0,3.4,4.8,6,11,6c0,0,0,0,0.1,0c0.2-2.4,1.4-4.6,3-6.2c-1,0.1-2,0.2-3.1,0.2C9.2,16,5.2,14.6,3,12.4z"/>
</g>
<path d="M31.7,20.9c-0.1-0.5-0.7-0.8-1.2-0.7c-0.7,0.2-1.2,0-1.3-0.2c-0.1-0.2,0-0.7,0.5-1.3c0.4-0.4,0.4-1,0-1.4
	c-1-1-2.2-1.7-3.6-2.1c-0.5-0.1-1.1,0.2-1.2,0.7c-0.2,0.7-0.6,1-0.9,1s-0.6-0.4-0.9-1c-0.2-0.5-0.7-0.8-1.2-0.7
	c-1.4,0.4-2.6,1.1-3.6,2.1c-0.4,0.4-0.4,1,0,1.4c0.5,0.5,0.6,1,0.5,1.3c-0.1,0.2-0.6,0.4-1.3,0.2c-0.5-0.1-1.1,0.2-1.2,0.7
	C16.1,21.6,16,22.3,16,23s0.1,1.4,0.3,2.1c0.1,0.5,0.7,0.8,1.2,0.7c0.7-0.2,1.2,0,1.3,0.2c0.1,0.2,0,0.7-0.5,1.3
	c-0.4,0.4-0.4,1,0,1.4c1,1,2.2,1.7,3.6,2.1c0.5,0.1,1.1-0.2,1.2-0.7c0.2-0.7,0.6-1,0.9-1s0.6,0.4,0.9,1c0.1,0.4,0.5,0.7,1,0.7
	c0.1,0,0.2,0,0.3,0c1.4-0.4,2.6-1.1,3.6-2.1c0.4-0.4,0.4-1,0-1.4c-0.5-0.5-0.6-1-0.5-1.3c0.1-0.2,0.6-0.4,1.3-0.2
	c0.5,0.1,1.1-0.2,1.2-0.7c0.2-0.7,0.3-1.4,0.3-2.1S31.9,21.6,31.7,20.9z M24,26c-1.7,0-3-1.3-3-3s1.3-3,3-3s3,1.3,3,3S25.7,26,24,26
	z"/>
</svg>